<?xml version="1.0" standalone="no"?>
<!DOCTYPE svg PUBLIC "-//W3C//DTD SVG 1.1//EN" "http://www.w3.org/Graphics/SVG/1.1/DTD/svg11.dtd">
<svg width="100%" height="100%" viewBox="0 0 400 200" version="1.1" xmlns="http://www.w3.org/2000/svg" xmlns:xlink="http://www.w3.org/1999/xlink" xml:space="preserve" style="fill-rule:evenodd;clip-rule:evenodd;stroke-linejoin:round;stroke-miterlimit:1.41421;">
    <g transform="matrix(1.30169,0,0,1,2.03385,-32.2395)">
        <ellipse cx="296.753" cy="216.207" rx="114.453" ry="131.198" style="fill:rgb(46,78,84);fill-opacity:0.509804;"/>
    </g>
    <g id="p" transform="matrix(1.77501,0,0,1.77501,-27.688,-88.4676)">
        <path d="M207.437,-37.609C195.134,-37.734 182.777,-36.105 170.554,-34.359C161.964,-33.132 153.31,-30.928 145.221,-27.692C134.442,-23.381 122.96,-15.722 120.554,-3.692C120.038,-1.115 118.769,3.261 120.554,5.641C127.676,15.137 143.099,18.839 153.271,23.924C160.309,27.444 171.374,43.317 161.887,49.641C141.886,62.975 111.378,55.059 87.887,58.974C77.881,60.642 63.564,62.936 60.554,74.974C57.772,86.103 68.128,89.252 76.554,94.308C86.714,100.404 97.757,114.164 94.554,126.974C91.888,137.639 76.375,138.974 67.887,138.974C47.227,138.974 28.784,129.462 7.887,133.641C-8.411,136.901 -20.919,153.852 -38.113,156.308C-50.463,158.072 -62.403,158.955 -72.779,150.308C-86.926,138.519 -85.918,121.519 -80.113,105.641C-68.355,73.482 -43.327,51.766 -36.113,15.641C-33.301,1.564 -36.561,-11.998 -41.446,-25.026C-45.517,-35.882 -54.705,-46.755 -49.446,-59.026C-46.273,-66.43 -39.059,-71.786 -32.779,-76.359C-12.246,-91.31 12.81,-100.516 37.221,-107.026C46.906,-109.608 61.98,-112.328 71.887,-109.026C89.107,-103.286 93.356,-76.757 105.046,-67.294L207.437,-37.609Z" style="fill:rgb(46,78,84);fill-opacity:0.156863;"/>
    </g>
</svg>
