<?xml version="1.0" standalone="no"?>
<!DOCTYPE svg PUBLIC "-//W3C//DTD SVG 1.1//EN" "http://www.w3.org/Graphics/SVG/1.1/DTD/svg11.dtd">
<svg width="100%" height="100%" viewBox="0 0 600 600" version="1.1" xmlns="http://www.w3.org/2000/svg" xmlns:xlink="http://www.w3.org/1999/xlink" xml:space="preserve" style="fill-rule:evenodd;clip-rule:evenodd;stroke-linejoin:round;stroke-miterlimit:1.41421;">
    <g>
        <g transform="matrix(30.8376,0,0,30.9038,-0.421897,-3.09708)">
            <g transform="matrix(0.994961,0,0,0.991348,-9.76398e-05,0.000156819)">
                <path d="M9.001,-0.53C9.001,-0.53 5.615,2.442 6.427,3.873C8.011,6.669 11.539,1.366 13.097,3.626C13.82,4.675 8.589,7.593 9.427,9.188C10.266,10.784 15.625,7.077 16.281,8.149C16.936,9.221 11.493,14.07 11.974,15.364C12.455,16.659 16.679,13.423 17.023,14.651C17.367,15.88 13.289,20.708 13.289,20.708L17.247,20.531L20.821,16.033L22.69,4.583L20.051,5.477C20.051,5.477 18.063,7.065 17.632,5.7C17.202,4.335 21.416,1.128 21.416,1.128L21.393,-2.151L18.979,-0.208C18.979,-0.208 16.523,2.158 16.12,1.119C15.717,0.08 16.253,-1.441 16.253,-1.441L11.402,-2.439L9.001,-0.53Z" style="fill:rgb(44,64,68);fill-opacity:0;"/>
            </g>
            <g transform="matrix(0.994961,0,0,0.991348,-9.76398e-05,0.000156819)">
                <path d="M3.598,-0.14C3.598,-0.14 0.288,3.241 -0.102,3.385C-0.491,3.53 -0.388,5.189 -0.388,5.189C-0.388,5.189 2.939,2.06 4.199,3.364C5.459,4.669 1.055,8.931 -0.319,10.266C-1.693,11.6 -0.737,13.368 -0.737,13.368L0.007,13.507C0.007,13.507 4.216,9.451 5.362,10.554C6.507,11.657 3.397,13.157 4.497,14.038C5.596,14.92 9.038,10.25 10.555,11.745C12.073,13.239 6.312,16.167 8.036,17.945C9.76,19.723 10.338,16.47 11.764,18.146C12.176,18.63 10.922,21.151 10.922,21.151L13.339,29.65L6.541,20.548C6.541,20.548 7.005,19.435 6.129,18.857C5.253,18.28 4.978,18.357 3.586,19.914C2.195,21.47 0.609,20.939 0.884,20.068C1.158,19.197 2.802,18.028 2.298,16.842C1.794,15.657 1.376,16.244 -0.308,17.208C-1.991,18.172 -6.87,17.76 -6.601,14.662C-6.332,11.564 -6.687,9.328 -5.845,5.576C-5.004,1.823 -4.757,-2.743 -3.48,-3.768C-2.203,-4.794 1.193,-7.211 2.624,-6.902C4.056,-6.593 5.013,-3.212 5.013,-3.212L3.598,-0.14Z" style="fill:rgb(44,64,68);fill-opacity:0;"/>
            </g>
            <g transform="matrix(0.938323,-0.758863,0.575206,0.706077,-3.2391,6.76325)">
                <ellipse cx="6.083" cy="7.266" rx="1.764" ry="1.021" style="fill:rgb(44,64,68);fill-opacity:0;"/>
            </g>
        </g>
        <g transform="matrix(31.0161,0,0,30.5025,-3.02093,-20.9073)">
            <g transform="matrix(0.994961,0,0,0.991348,-9.76398e-05,0.000156819)">
                <path d="M9.001,-0.53C9.001,-0.53 5.615,2.442 6.427,3.873C8.011,6.669 11.539,1.366 13.097,3.626C13.82,4.675 8.589,7.593 9.427,9.188C10.266,10.784 15.625,7.077 16.281,8.149C16.936,9.221 11.493,14.07 11.974,15.364C12.455,16.659 16.679,13.423 17.023,14.651C17.367,15.88 13.289,20.708 13.289,20.708L17.247,20.531L20.821,16.033L22.69,4.583L20.051,5.477C20.051,5.477 18.063,7.065 17.632,5.7C17.202,4.335 21.416,1.128 21.416,1.128L21.393,-2.151L18.979,-0.208C18.979,-0.208 16.523,2.158 16.12,1.119C15.717,0.08 16.253,-1.441 16.253,-1.441L11.402,-2.439L9.001,-0.53Z" style="fill:rgb(93,106,109);fill-opacity:0.0352941;"/>
            </g>
            <g transform="matrix(0.994961,0,0,0.991348,-9.76398e-05,0.000156819)">
                <path d="M3.598,-0.14C3.598,-0.14 0.288,3.241 -0.102,3.385C-0.491,3.53 -0.388,5.189 -0.388,5.189C-0.388,5.189 2.939,2.06 4.199,3.364C5.459,4.669 1.055,8.931 -0.319,10.266C-1.693,11.6 -0.737,13.368 -0.737,13.368L0.007,13.507C0.007,13.507 4.216,9.451 5.362,10.554C6.507,11.657 3.397,13.157 4.497,14.038C5.596,14.92 9.038,10.25 10.555,11.745C12.073,13.239 6.312,16.167 8.036,17.945C9.76,19.723 10.338,16.47 11.764,18.146C12.176,18.63 10.922,21.151 10.922,21.151L13.339,29.65L6.541,20.548C6.541,20.548 7.005,19.435 6.129,18.857C5.253,18.28 4.978,18.357 3.586,19.914C2.195,21.47 0.609,20.939 0.884,20.068C1.158,19.197 2.802,18.028 2.298,16.842C1.794,15.657 1.376,16.244 -0.308,17.208C-1.991,18.172 -6.87,17.76 -6.601,14.662C-6.332,11.564 -6.687,9.328 -5.845,5.576C-5.004,1.823 -4.757,-2.743 -3.48,-3.768C-2.203,-4.794 1.193,-7.211 2.624,-6.902C4.056,-6.593 5.013,-3.212 5.013,-3.212L3.598,-0.14Z" style="fill:rgb(93,106,109);fill-opacity:0.0352941;"/>
            </g>
            <g transform="matrix(0.938323,-0.758863,0.575206,0.706077,-3.2391,6.76325)">
                <ellipse cx="6.083" cy="7.266" rx="1.764" ry="1.021" style="fill:rgb(93,106,109);fill-opacity:0.0352941;"/>
            </g>
        </g>
    </g>
</svg>
