<?xml version="1.0" encoding="UTF-8" standalone="no"?><!DOCTYPE svg PUBLIC "-//W3C//DTD SVG 1.1//EN" "http://www.w3.org/Graphics/SVG/1.1/DTD/svg11.dtd"><svg width="100%" height="100%" viewBox="0 0 600 300" version="1.1" xmlns="http://www.w3.org/2000/svg" xmlns:xlink="http://www.w3.org/1999/xlink" xml:space="preserve" style="fill-rule:evenodd;clip-rule:evenodd;stroke-linecap:round;stroke-linejoin:round;stroke-miterlimit:1.41421;"><g><path d="M90.931,117.787l6.17,3.75l-5.469,3.436l-0.701,-7.186Z" style="fill:none;stroke-width:2px;stroke:#ebebeb;"/><path d="M553.671,177.197l-0.434,7.208l-5.593,-3.231l6.027,-3.977Z" style="fill:none;stroke-width:2px;stroke:#ebebeb;"/><path d="M591.046,108.239l-0.434,7.208l-5.593,-3.231l6.027,-3.977Z" style="fill:none;stroke-width:2px;stroke:#ebebeb;"/><path d="M60.128,171.54l3.022,-6.558l4.038,5.041l-7.06,1.517Z" style="fill:none;stroke-width:2px;stroke:#ebebeb;"/><path d="M491.755,175.07l7.21,-0.391l-2.572,5.924l-4.638,-5.533Z" style="fill:none;stroke-width:2px;stroke:#ebebeb;"/><path d="M529.13,106.111l7.21,-0.391l-2.572,5.925l-4.638,-5.534Z" style="fill:none;stroke-width:2px;stroke:#ebebeb;"/><path d="M12.959,167.618l2.552,-5.102l2.984,3.726l-5.536,1.376Z" style="fill:none;stroke-width:2px;stroke:#ebebeb;"/><path d="M28.954,102.054c0,-0.671 -0.545,-1.217 -1.217,-1.217l-2.434,0c-0.671,0 -1.216,0.546 -1.216,1.217l0,2.434c0,0.671 0.545,1.217 1.216,1.217l2.434,0c0.672,0 1.217,-0.546 1.217,-1.217l0,-2.434Z" style="fill:none;stroke-width:2px;stroke:#ebebeb;"/><path d="M45.421,184.456c0,-0.433 -0.352,-0.785 -0.786,-0.785l-1.571,0c-0.434,0 -0.786,0.352 -0.786,0.785l0,1.572c0,0.433 0.352,0.785 0.786,0.785l1.571,0c0.434,0 0.786,-0.352 0.786,-0.785l0,-1.572Z" style="fill:none;stroke-width:2px;stroke:#ebebeb;"/><path d="M44.867,90.716c0,0 -2.409,-1.408 -3.362,-0.352c-0.952,1.056 1.97,2.547 0.785,3.86c-1.184,1.313 -3.463,0.344 -3.842,0.003" style="fill:none;stroke-width:2px;stroke:#ebebeb;"/><path d="M98.82,151.81c0.438,-0.657 0.26,-1.545 -0.397,-1.983l-2.38,-1.586c-0.657,-0.438 -1.546,-0.26 -1.984,0.397l-1.586,2.381c-0.437,0.657 -0.259,1.545 0.398,1.983l2.38,1.586c0.657,0.438 1.546,0.26 1.983,-0.397l1.586,-2.381Z" style="fill:none;stroke-width:2px;stroke:#ebebeb;"/><path d="M527.272,200.066c0.786,0.08 1.488,-0.492 1.568,-1.278l0.291,-2.845c0.08,-0.786 -0.492,-1.488 -1.278,-1.568l-2.845,-0.291c-0.785,-0.08 -1.488,0.493 -1.568,1.278l-0.291,2.845c-0.08,0.786 0.493,1.488 1.278,1.568l2.845,0.291Z" style="fill:none;stroke-width:2px;stroke:#ebebeb;"/><path d="M564.647,131.108c0.786,0.08 1.488,-0.493 1.568,-1.278l0.291,-2.846c0.08,-0.785 -0.492,-1.487 -1.278,-1.568l-2.845,-0.29c-0.785,-0.08 -1.488,0.492 -1.568,1.277l-0.291,2.846c-0.08,0.785 0.493,1.488 1.278,1.568l2.845,0.291Z" style="fill:none;stroke-width:2px;stroke:#ebebeb;"/><path d="M76.652,98.019c0,-0.156 -0.127,-0.283 -0.283,-0.283l-0.565,0c-0.156,0 -0.283,0.127 -0.283,0.283l0,0.565c0,0.156 0.127,0.283 0.283,0.283l0.565,0c0.156,0 0.283,-0.127 0.283,-0.283l0,-0.565Z" style="fill:none;stroke-width:2px;stroke:#ebebeb;"/><path d="M564.48,155.338c0.138,-0.073 0.191,-0.244 0.118,-0.382l-0.264,-0.5c-0.073,-0.138 -0.244,-0.191 -0.382,-0.118l-0.5,0.264c-0.138,0.073 -0.191,0.244 -0.118,0.382l0.264,0.5c0.073,0.138 0.245,0.191 0.383,0.118l0.499,-0.264Z" style="fill:none;stroke-width:2px;stroke:#ebebeb;"/><path d="M117.772,199.661c0.138,-0.073 0.191,-0.244 0.118,-0.382l-0.264,-0.5c-0.073,-0.138 -0.244,-0.191 -0.382,-0.118l-0.5,0.264c-0.138,0.073 -0.191,0.244 -0.118,0.382l0.264,0.5c0.073,0.138 0.244,0.191 0.382,0.118l0.5,-0.264Z" style="fill:none;stroke-width:2px;stroke:#ebebeb;"/><path d="M37.028,160.02c0,-0.402 -0.326,-0.728 -0.728,-0.728l-1.456,0c-0.402,0 -0.728,0.326 -0.728,0.728l0,1.456c0,0.402 0.326,0.728 0.728,0.728l1.456,0c0.402,0 0.728,-0.326 0.728,-0.728l0,-1.456Z" style="fill:none;stroke-width:2px;stroke:#ebebeb;"/><circle cx="76.19" cy="129.987" r="1.843" style="fill:none;stroke-width:2px;stroke:#ebebeb;"/><path d="M537.628,169.001c0.475,0.9 0.13,2.015 -0.769,2.491c-0.899,0.475 -2.015,0.13 -2.49,-0.769c-0.475,-0.899 -0.131,-2.015 0.768,-2.49c0.9,-0.475 2.016,-0.131 2.491,0.768Z" style="fill:none;stroke-width:2px;stroke:#ebebeb;"/><path d="M575.003,100.043c0.475,0.899 0.13,2.015 -0.769,2.49c-0.899,0.475 -2.015,0.131 -2.49,-0.768c-0.475,-0.9 -0.131,-2.015 0.768,-2.491c0.9,-0.475 2.016,-0.13 2.491,0.769Z" style="fill:none;stroke-width:2px;stroke:#ebebeb;"/><circle cx="38.302" cy="111.571" r="1.532" style="fill:none;stroke-width:2px;stroke:#ebebeb;"/><circle cx="6.829" cy="189.159" r="3.607" style="fill:none;stroke-width:2px;stroke:#ebebeb;"/><path d="M56.283,146.388c0,0 -0.451,-3.698 1.753,-3.803c2.204,-0.104 1.954,4.151 4.025,3.744c2.071,-0.407 2.104,-4.209 2.104,-4.209" style="fill:none;stroke-width:2px;stroke:#ebebeb;"/><path d="M512.197,159.921c0,0 3.059,-2.126 4.182,-0.226c1.122,1.9 -2.757,3.666 -1.43,5.308c1.327,1.641 4.705,-0.106 4.705,-0.106" style="fill:none;stroke-width:2px;stroke:#ebebeb;"/><path d="M65.489,204.244c0,0 3.059,-2.126 4.181,-0.226c1.123,1.9 -2.757,3.666 -1.43,5.308c1.328,1.641 4.705,-0.106 4.705,-0.106" style="fill:none;stroke-width:2px;stroke:#ebebeb;"/></g></svg>