<?xml version="1.0" standalone="no"?>
<!DOCTYPE svg PUBLIC "-//W3C//DTD SVG 1.1//EN" "http://www.w3.org/Graphics/SVG/1.1/DTD/svg11.dtd">
<svg width="100%" height="100%" viewBox="0 0 637 91" version="1.1" xmlns="http://www.w3.org/2000/svg" xmlns:xlink="http://www.w3.org/1999/xlink" xml:space="preserve" style="fill-rule:evenodd;clip-rule:evenodd;stroke-linejoin:round;stroke-miterlimit:1.41421;">
    <g transform="matrix(0.75,0,0,0.75,-1363.96,-817.865)">
        <g transform="matrix(5.60409,0,0,5.60409,1981.23,717.25)">
            <path d="M0.224,74.772C0.224,74.892 0.32,75 0.452,75L3.188,75C4.736,75 5.804,74.028 5.804,72.684C5.804,71.58 5,70.992 4.364,70.728C4.928,70.404 5.54,69.732 5.54,68.808C5.54,67.548 4.544,66.6 3.08,66.6L0.452,66.6C0.32,66.6 0.224,66.708 0.224,66.828L0.224,74.772ZM1.124,70.368L1.124,67.428L3.08,67.428C4.004,67.428 4.52,68.004 4.52,68.868C4.52,69.708 4.004,70.368 3.08,70.368L1.124,70.368ZM1.1,74.196L1.1,71.196L3.08,71.196C4.016,71.196 4.796,71.82 4.796,72.672C4.796,73.536 4.16,74.196 3.284,74.196L1.1,74.196Z" style="fill:rgb(43,43,43);fill-opacity:0.8;fill-rule:nonzero;"/>
            <path d="M8.984,75L9.464,75C9.572,75 9.644,74.928 9.668,74.868L10.544,72.888L14.804,72.888L15.692,74.868C15.716,74.928 15.788,75 15.896,75L16.376,75C16.556,75 16.652,74.844 16.58,74.688L12.956,66.612C12.92,66.54 12.86,66.48 12.752,66.48L12.632,66.48C12.524,66.48 12.464,66.54 12.428,66.612L8.78,74.688C8.708,74.844 8.804,75 8.984,75ZM10.88,72.144L12.632,68.208L12.728,68.208C13.316,69.516 13.892,70.836 14.48,72.144L10.88,72.144Z" style="fill:rgb(43,43,43);fill-opacity:0.8;fill-rule:nonzero;"/>
            <path d="M20.096,74.772C20.096,74.892 20.192,75 20.324,75L24.476,75C24.608,75 24.704,74.892 24.704,74.772L24.704,74.424C24.704,74.304 24.608,74.196 24.476,74.196L21.02,74.196L21.02,66.828C21.02,66.708 20.912,66.6 20.792,66.6L20.324,66.6C20.192,66.6 20.096,66.708 20.096,66.828L20.096,74.772Z" style="fill:rgb(43,43,43);fill-opacity:0.8;fill-rule:nonzero;"/>
            <path d="M28.197,74.772C28.197,74.892 28.293,75 28.425,75L31.161,75C32.709,75 33.777,74.028 33.777,72.684C33.777,71.58 32.973,70.992 32.337,70.728C32.901,70.404 33.513,69.732 33.513,68.808C33.513,67.548 32.517,66.6 31.053,66.6L28.425,66.6C28.293,66.6 28.197,66.708 28.197,66.828L28.197,74.772ZM29.097,70.368L29.097,67.428L31.053,67.428C31.977,67.428 32.493,68.004 32.493,68.868C32.493,69.708 31.977,70.368 31.053,70.368L29.097,70.368ZM29.073,74.196L29.073,71.196L31.053,71.196C31.989,71.196 32.769,71.82 32.769,72.672C32.769,73.536 32.133,74.196 31.257,74.196L29.073,74.196Z" style="fill:rgb(43,43,43);fill-opacity:0.8;fill-rule:nonzero;"/>
            <path d="M37.293,70.812C37.293,73.212 39.201,75.12 41.601,75.12C44.001,75.12 45.921,73.212 45.921,70.812C45.921,68.412 44.001,66.48 41.601,66.48C39.201,66.48 37.293,68.412 37.293,70.812ZM38.133,70.812C38.133,68.904 39.693,67.32 41.601,67.32C43.509,67.32 45.081,68.904 45.081,70.812C45.081,72.72 43.509,74.28 41.601,74.28C39.693,74.28 38.133,72.72 38.133,70.812Z" style="fill:rgb(43,43,43);fill-opacity:0.8;fill-rule:nonzero;"/>
            <path d="M49.017,75L49.497,75C49.605,75 49.677,74.928 49.701,74.868L50.577,72.888L54.837,72.888L55.725,74.868C55.749,74.928 55.821,75 55.929,75L56.409,75C56.589,75 56.685,74.844 56.613,74.688L52.989,66.612C52.953,66.54 52.893,66.48 52.785,66.48L52.665,66.48C52.557,66.48 52.497,66.54 52.461,66.612L48.813,74.688C48.741,74.844 48.837,75 49.017,75ZM50.913,72.144L52.665,68.208L52.761,68.208C53.349,69.516 53.925,70.836 54.513,72.144L50.913,72.144Z" style="fill:rgb(43,43,43);fill-opacity:0.8;fill-rule:nonzero;"/>
            <path d="M65.026,74.772C65.026,74.892 65.122,75 65.254,75L65.71,75C65.83,75 65.938,74.892 65.938,74.772L65.938,71.952L67.918,71.952C69.382,71.952 70.594,70.74 70.594,69.252C70.594,67.8 69.382,66.6 67.906,66.6L65.254,66.6C65.122,66.6 65.026,66.708 65.026,66.828L65.026,74.772ZM65.938,71.064L65.938,67.512L67.846,67.512C68.83,67.512 69.67,68.256 69.67,69.228C69.67,70.26 68.83,71.064 67.846,71.064L65.938,71.064Z" style="fill:rgb(43,43,43);fill-opacity:0.8;fill-rule:nonzero;"/>
            <path d="M73.438,75L73.918,75C74.026,75 74.098,74.928 74.122,74.868L74.998,72.888L79.258,72.888L80.146,74.868C80.17,74.928 80.242,75 80.35,75L80.83,75C81.01,75 81.106,74.844 81.034,74.688L77.41,66.612C77.374,66.54 77.314,66.48 77.206,66.48L77.086,66.48C76.978,66.48 76.918,66.54 76.882,66.612L73.234,74.688C73.162,74.844 73.258,75 73.438,75ZM75.334,72.144L77.086,68.208L77.182,68.208C77.77,69.516 78.346,70.836 78.934,72.144L75.334,72.144Z" style="fill:rgb(43,43,43);fill-opacity:0.8;fill-rule:nonzero;"/>
            <path d="M83.938,70.812C83.938,73.212 85.87,75.12 88.27,75.12C89.338,75.12 90.37,74.748 91.186,73.956C91.27,73.872 91.294,73.704 91.198,73.632L90.838,73.308C90.766,73.26 90.67,73.248 90.55,73.344C89.914,73.824 89.302,74.244 88.258,74.244C86.362,74.244 84.91,72.648 84.91,70.8C84.91,68.94 86.362,67.344 88.258,67.344C89.074,67.344 89.926,67.704 90.55,68.244C90.67,68.364 90.766,68.376 90.862,68.256L91.186,67.932C91.282,67.836 91.27,67.692 91.174,67.596C90.358,66.9 89.482,66.48 88.27,66.48C85.87,66.48 83.938,68.412 83.938,70.812Z" style="fill:rgb(43,43,43);fill-opacity:0.8;fill-rule:nonzero;"/>
            <path d="M95.243,74.772C95.243,74.892 95.351,75 95.471,75L95.951,75C96.071,75 96.179,74.892 96.179,74.772L96.179,66.828C96.179,66.708 96.071,66.6 95.951,66.6L95.471,66.6C95.351,66.6 95.243,66.708 95.243,66.828L95.243,74.772Z" style="fill:rgb(43,43,43);fill-opacity:0.8;fill-rule:nonzero;"/>
            <path d="M100.835,74.772C100.835,74.892 100.931,75 101.063,75L101.531,75C101.651,75 101.759,74.892 101.759,74.772L101.759,71.496L105.203,71.496C105.323,71.496 105.431,71.388 105.431,71.268L105.431,70.92C105.431,70.8 105.323,70.692 105.203,70.692L101.759,70.692L101.759,67.404L105.791,67.404C105.923,67.404 106.019,67.296 106.019,67.176L106.019,66.828C106.019,66.708 105.923,66.6 105.791,66.6L101.063,66.6C100.931,66.6 100.835,66.708 100.835,66.828L100.835,74.772Z" style="fill:rgb(43,43,43);fill-opacity:0.8;fill-rule:nonzero;"/>
            <path d="M109.871,74.772C109.871,74.892 109.979,75 110.099,75L110.579,75C110.699,75 110.807,74.892 110.807,74.772L110.807,66.828C110.807,66.708 110.699,66.6 110.579,66.6L110.099,66.6C109.979,66.6 109.871,66.708 109.871,66.828L109.871,74.772Z" style="fill:rgb(43,43,43);fill-opacity:0.8;fill-rule:nonzero;"/>
            <path d="M114.851,70.812C114.851,73.212 116.783,75.12 119.183,75.12C120.251,75.12 121.283,74.748 122.099,73.956C122.183,73.872 122.207,73.704 122.111,73.632L121.751,73.308C121.679,73.26 121.583,73.248 121.463,73.344C120.827,73.824 120.215,74.244 119.171,74.244C117.275,74.244 115.823,72.648 115.823,70.8C115.823,68.94 117.275,67.344 119.171,67.344C119.987,67.344 120.839,67.704 121.463,68.244C121.583,68.364 121.679,68.376 121.775,68.256L122.099,67.932C122.195,67.836 122.183,67.692 122.087,67.596C121.271,66.9 120.395,66.48 119.183,66.48C116.783,66.48 114.851,68.412 114.851,70.812Z" style="fill:rgb(43,43,43);fill-opacity:0.8;fill-rule:nonzero;"/>
        </g>
        <g transform="matrix(5.60409,0,0,5.60409,1983.72,789.986)">
            <path d="M-0.242,74.859C-0.242,74.933 -0.175,75 -0.1,75L0.197,75C0.271,75 0.338,74.933 0.338,74.859L0.338,69.937C0.338,69.862 0.271,69.795 0.197,69.795L-0.1,69.795C-0.175,69.795 -0.242,69.862 -0.242,69.937L-0.242,74.859Z" style="fill:rgb(43,43,43);fill-opacity:0.8;fill-rule:nonzero;"/>
            <path d="M2.524,74.859C2.524,74.933 2.591,75 2.665,75L2.926,75C3.007,75 3.067,74.933 3.067,74.859L3.067,70.814L3.074,70.814L6.487,75.074L6.621,75.074C6.695,75.074 6.762,75.015 6.762,74.941L6.762,69.937C6.762,69.862 6.695,69.795 6.621,69.795L6.361,69.795C6.279,69.795 6.219,69.862 6.219,69.937L6.219,73.9C6.212,73.9 6.212,73.9 6.205,73.9L2.851,69.721L2.665,69.721C2.591,69.721 2.524,69.781 2.524,69.855L2.524,74.859Z" style="fill:rgb(43,43,43);fill-opacity:0.8;fill-rule:nonzero;"/>
            <path d="M8.658,74.472C8.755,74.561 9.35,75.074 10.227,75.074C11.097,75.074 11.833,74.509 11.833,73.736C11.833,72.874 11.186,72.494 10.182,72.085C9.558,71.825 9.179,71.535 9.179,71.037C9.179,70.725 9.416,70.219 10.205,70.219C10.658,70.219 11.127,70.532 11.179,70.561C11.298,70.628 11.372,70.598 11.439,70.494C11.469,70.45 11.498,70.398 11.528,70.353C11.617,70.212 11.528,70.123 11.483,70.1C11.483,70.1 10.941,69.721 10.212,69.721C9.03,69.721 8.628,70.539 8.628,71.045C8.628,71.892 9.119,72.227 9.937,72.584C10.792,72.94 11.238,73.245 11.238,73.758C11.238,74.197 10.844,74.576 10.242,74.576C9.58,74.576 9.037,74.056 8.985,74.011C8.881,73.922 8.799,73.981 8.725,74.078C8.688,74.123 8.651,74.175 8.614,74.219C8.524,74.361 8.599,74.42 8.658,74.472Z" style="fill:rgb(43,43,43);fill-opacity:0.8;fill-rule:nonzero;"/>
            <path d="M13.513,73.082C13.513,74.212 14.309,75.074 15.476,75.074C16.651,75.074 17.454,74.212 17.454,73.082L17.454,69.937C17.454,69.862 17.387,69.795 17.313,69.795L17.03,69.795C16.948,69.795 16.889,69.862 16.889,69.937L16.889,73.052C16.889,73.9 16.353,74.546 15.476,74.546C14.606,74.546 14.078,73.885 14.078,73.037L14.078,69.937C14.078,69.862 14.019,69.795 13.937,69.795L13.654,69.795C13.58,69.795 13.513,69.862 13.513,69.937L13.513,73.082Z" style="fill:rgb(43,43,43);fill-opacity:0.8;fill-rule:nonzero;"/>
            <path d="M19.573,74.859C19.573,74.933 19.632,75 19.714,75L20.004,75C20.078,75 20.145,74.933 20.145,74.859L20.145,72.963L21.565,72.963L22.554,74.933C22.569,74.963 22.606,75 22.673,75L23.052,75C23.179,75 23.231,74.881 23.179,74.784L22.16,72.896C22.807,72.636 23.261,72.063 23.261,71.379C23.261,70.494 22.532,69.795 21.64,69.795L19.714,69.795C19.632,69.795 19.573,69.862 19.573,69.937L19.573,74.859ZM20.16,72.472L20.16,70.338L21.603,70.338C22.175,70.338 22.673,70.822 22.673,71.387C22.673,71.996 22.175,72.472 21.603,72.472L20.16,72.472Z" style="fill:rgb(43,43,43);fill-opacity:0.8;fill-rule:nonzero;"/>
            <path d="M24.569,75L24.867,75C24.933,75 24.978,74.955 24.993,74.918L25.536,73.691L28.175,73.691L28.725,74.918C28.74,74.955 28.785,75 28.852,75L29.149,75C29.261,75 29.32,74.903 29.275,74.807L27.03,69.803C27.008,69.758 26.971,69.721 26.904,69.721L26.829,69.721C26.762,69.721 26.725,69.758 26.703,69.803L24.443,74.807C24.398,74.903 24.458,75 24.569,75ZM25.744,73.23L26.829,70.792L26.889,70.792C27.253,71.602 27.61,72.42 27.974,73.23L25.744,73.23Z" style="fill:rgb(43,43,43);fill-opacity:0.8;fill-rule:nonzero;"/>
            <path d="M30.755,74.859C30.755,74.933 30.822,75 30.896,75L31.157,75C31.238,75 31.298,74.933 31.298,74.859L31.298,70.814L31.305,70.814L34.718,75.074L34.852,75.074C34.926,75.074 34.993,75.015 34.993,74.941L34.993,69.937C34.993,69.862 34.926,69.795 34.852,69.795L34.592,69.795C34.51,69.795 34.45,69.862 34.45,69.937L34.45,73.9C34.443,73.9 34.443,73.9 34.435,73.9L31.082,69.721L30.896,69.721C30.822,69.721 30.755,69.781 30.755,69.855L30.755,74.859Z" style="fill:rgb(43,43,43);fill-opacity:0.8;fill-rule:nonzero;"/>
            <path d="M36.8,72.405C36.8,73.892 37.997,75.074 39.484,75.074C40.146,75.074 40.785,74.844 41.291,74.353C41.343,74.301 41.357,74.197 41.298,74.152L41.075,73.952C41.03,73.922 40.971,73.914 40.896,73.974C40.502,74.271 40.123,74.532 39.476,74.532C38.302,74.532 37.402,73.543 37.402,72.398C37.402,71.245 38.302,70.256 39.476,70.256C39.982,70.256 40.51,70.479 40.896,70.814C40.971,70.888 41.03,70.896 41.09,70.822L41.291,70.621C41.35,70.561 41.343,70.472 41.283,70.413C40.777,69.981 40.235,69.721 39.484,69.721C37.997,69.721 36.8,70.918 36.8,72.405Z" style="fill:rgb(43,43,43);fill-opacity:0.8;fill-rule:nonzero;"/>
            <path d="M43.105,74.859C43.105,74.933 43.164,75 43.246,75L46.175,75C46.257,75 46.317,74.933 46.317,74.859L46.317,74.643C46.317,74.569 46.257,74.502 46.175,74.502L43.677,74.502L43.677,72.606L45.811,72.606C45.885,72.606 45.952,72.546 45.952,72.465L45.952,72.249C45.952,72.175 45.885,72.108 45.811,72.108L43.677,72.108L43.677,70.294L46.175,70.294C46.257,70.294 46.317,70.227 46.317,70.152L46.317,69.937C46.317,69.862 46.257,69.795 46.175,69.795L43.246,69.795C43.164,69.795 43.105,69.862 43.105,69.937L43.105,74.859Z" style="fill:rgb(43,43,43);fill-opacity:0.8;fill-rule:nonzero;"/>
            <path d="M50.228,74.472C50.325,74.561 50.92,75.074 51.797,75.074C52.667,75.074 53.403,74.509 53.403,73.736C53.403,72.874 52.756,72.494 51.752,72.085C51.128,71.825 50.749,71.535 50.749,71.037C50.749,70.725 50.987,70.219 51.775,70.219C52.228,70.219 52.697,70.532 52.749,70.561C52.868,70.628 52.942,70.598 53.009,70.494C53.039,70.45 53.068,70.398 53.098,70.353C53.187,70.212 53.098,70.123 53.054,70.1C53.054,70.1 52.511,69.721 51.782,69.721C50.6,69.721 50.199,70.539 50.199,71.045C50.199,71.892 50.689,72.227 51.507,72.584C52.362,72.94 52.808,73.245 52.808,73.758C52.808,74.197 52.414,74.576 51.812,74.576C51.15,74.576 50.608,74.056 50.555,74.011C50.451,73.922 50.37,73.981 50.295,74.078C50.258,74.123 50.221,74.175 50.184,74.219C50.094,74.361 50.169,74.42 50.228,74.472Z" style="fill:rgb(43,43,43);fill-opacity:0.8;fill-rule:nonzero;"/>
            <path d="M55.15,74.859C55.15,74.933 55.21,75 55.292,75L58.221,75C58.303,75 58.362,74.933 58.362,74.859L58.362,74.643C58.362,74.569 58.303,74.502 58.221,74.502L55.723,74.502L55.723,72.606L57.857,72.606C57.931,72.606 57.998,72.546 57.998,72.465L57.998,72.249C57.998,72.175 57.931,72.108 57.857,72.108L55.723,72.108L55.723,70.294L58.221,70.294C58.303,70.294 58.362,70.227 58.362,70.152L58.362,69.937C58.362,69.862 58.303,69.795 58.221,69.795L55.292,69.795C55.21,69.795 55.15,69.862 55.15,69.937L55.15,74.859Z" style="fill:rgb(43,43,43);fill-opacity:0.8;fill-rule:nonzero;"/>
            <path d="M60.221,74.859C60.221,74.933 60.28,75 60.362,75L60.652,75C60.727,75 60.794,74.933 60.794,74.859L60.794,72.963L62.214,72.963L63.202,74.933C63.217,74.963 63.255,75 63.321,75L63.701,75C63.827,75 63.879,74.881 63.827,74.784L62.808,72.896C63.455,72.636 63.909,72.063 63.909,71.379C63.909,70.494 63.18,69.795 62.288,69.795L60.362,69.795C60.28,69.795 60.221,69.862 60.221,69.937L60.221,74.859ZM60.808,72.472L60.808,70.338L62.251,70.338C62.823,70.338 63.321,70.822 63.321,71.387C63.321,71.996 62.823,72.472 62.251,72.472L60.808,72.472Z" style="fill:rgb(43,43,43);fill-opacity:0.8;fill-rule:nonzero;"/>
            <path d="M67.344,74.993C67.366,75.037 67.418,75.074 67.47,75.074L67.545,75.074C67.604,75.074 67.649,75.037 67.671,74.993L69.931,69.989C69.976,69.892 69.916,69.795 69.805,69.795L69.507,69.795C69.448,69.795 69.396,69.84 69.381,69.877L67.53,74.041L67.5,74.041L65.649,69.877C65.634,69.84 65.589,69.795 65.522,69.795L65.225,69.795C65.113,69.795 65.054,69.892 65.098,69.989L67.344,74.993Z" style="fill:rgb(43,43,43);fill-opacity:0.8;fill-rule:nonzero;"/>
            <path d="M71.411,74.859C71.411,74.933 71.478,75 71.552,75L71.849,75C71.924,75 71.991,74.933 71.991,74.859L71.991,69.937C71.991,69.862 71.924,69.795 71.849,69.795L71.552,69.795C71.478,69.795 71.411,69.862 71.411,69.937L71.411,74.859Z" style="fill:rgb(43,43,43);fill-opacity:0.8;fill-rule:nonzero;"/>
            <path d="M73.797,72.405C73.797,73.892 74.994,75.074 76.481,75.074C77.143,75.074 77.783,74.844 78.288,74.353C78.34,74.301 78.355,74.197 78.296,74.152L78.073,73.952C78.028,73.922 77.968,73.914 77.894,73.974C77.5,74.271 77.121,74.532 76.474,74.532C75.299,74.532 74.4,73.543 74.4,72.398C74.4,71.245 75.299,70.256 76.474,70.256C76.98,70.256 77.507,70.479 77.894,70.814C77.968,70.888 78.028,70.896 78.087,70.822L78.288,70.621C78.348,70.561 78.34,70.472 78.281,70.413C77.775,69.981 77.232,69.721 76.481,69.721C74.994,69.721 73.797,70.918 73.797,72.405Z" style="fill:rgb(43,43,43);fill-opacity:0.8;fill-rule:nonzero;"/>
            <path d="M80.102,74.859C80.102,74.933 80.162,75 80.244,75L83.173,75C83.255,75 83.314,74.933 83.314,74.859L83.314,74.643C83.314,74.569 83.255,74.502 83.173,74.502L80.675,74.502L80.675,72.606L82.809,72.606C82.883,72.606 82.95,72.546 82.95,72.465L82.95,72.249C82.95,72.175 82.883,72.108 82.809,72.108L80.675,72.108L80.675,70.294L83.173,70.294C83.255,70.294 83.314,70.227 83.314,70.152L83.314,69.937C83.314,69.862 83.255,69.795 83.173,69.795L80.244,69.795C80.162,69.795 80.102,69.862 80.102,69.937L80.102,74.859Z" style="fill:rgb(43,43,43);fill-opacity:0.8;fill-rule:nonzero;"/>
            <path d="M84.883,74.472C84.98,74.561 85.574,75.074 86.452,75.074C87.322,75.074 88.058,74.509 88.058,73.736C88.058,72.874 87.411,72.494 86.407,72.085C85.783,71.825 85.403,71.535 85.403,71.037C85.403,70.725 85.641,70.219 86.43,70.219C86.883,70.219 87.351,70.532 87.404,70.561C87.522,70.628 87.597,70.598 87.664,70.494C87.693,70.45 87.723,70.398 87.753,70.353C87.842,70.212 87.753,70.123 87.708,70.1C87.708,70.1 87.166,69.721 86.437,69.721C85.255,69.721 84.853,70.539 84.853,71.045C84.853,71.892 85.344,72.227 86.162,72.584C87.017,72.94 87.463,73.245 87.463,73.758C87.463,74.197 87.069,74.576 86.467,74.576C85.805,74.576 85.262,74.056 85.21,74.011C85.106,73.922 85.024,73.981 84.95,74.078C84.913,74.123 84.876,74.175 84.838,74.219C84.749,74.361 84.824,74.42 84.883,74.472Z" style="fill:rgb(43,43,43);fill-opacity:0.8;fill-rule:nonzero;"/>
        </g>
        <g transform="matrix(0.44105,0,0,0.44105,850.87,775.823)">
            <g transform="matrix(5.60409,0,0,5.60409,1981.23,717.25)">
                <path d="M72.065,17.489C81.197,12.18 86.572,4.601 89.312,15.747C92.758,29.77 84.172,43.953 70.149,47.4C56.126,50.847 41.943,42.26 38.496,28.237C36.834,21.476 39.496,20.304 44.271,20.517C48.958,20.726 58.784,27.542 71.728,24.7C73.987,24.204 78.908,22.459 80.357,22.086C81.813,21.715 85.618,22.692 85.618,22.692C84.835,20.886 80.56,20.35 80.028,20.123C79.496,19.896 78.434,18.624 75.828,17.958C74.756,17.685 73.349,17.552 72.065,17.489Z" style="fill:url(#_Linear1);"/>
                <clipPath id="_clip2">
                    <path d="M72.065,17.489C81.197,12.18 86.572,4.601 89.312,15.747C92.758,29.77 84.172,43.953 70.149,47.4C56.126,50.847 41.943,42.26 38.496,28.237C36.834,21.476 39.496,20.304 44.271,20.517C48.958,20.726 58.784,27.542 71.728,24.7C73.987,24.204 78.908,22.459 80.357,22.086C81.813,21.715 85.618,22.692 85.618,22.692C84.835,20.886 80.56,20.35 80.028,20.123C79.496,19.896 78.434,18.624 75.828,17.958C74.756,17.685 73.349,17.552 72.065,17.489Z"/>
                </clipPath>
                <g clip-path="url(#_clip2)">
                    <rect x="33" y="5" width="62.073" height="48.161" style="fill:url(#_Linear3);"/>
                </g>
            </g>
            <g transform="matrix(5.60409,0,0,5.60409,1981.23,717.25)">
                <g opacity="0.8">
                    <path d="M82.271,40.883C71.85,50.88 55.274,50.535 45.278,40.114C35.281,29.694 35.626,13.117 46.047,3.121C56.467,-6.876 55.366,11.255 65.363,21.676C75.359,32.097 92.692,30.887 82.271,40.883Z" style="fill:url(#_Linear4);"/>
                    <clipPath id="_clip5">
                        <path d="M82.271,40.883C71.85,50.88 55.274,50.535 45.278,40.114C35.281,29.694 35.626,13.117 46.047,3.121C56.467,-6.876 55.366,11.255 65.363,21.676C75.359,32.097 92.692,30.887 82.271,40.883Z"/>
                    </clipPath>
                    <g clip-path="url(#_clip5)">
                        <rect x="38" y="0" width="48" height="49" style="fill:url(#_Linear6);"/>
                    </g>
                </g>
            </g>
        </g>
    </g>
    <defs>
        <linearGradient id="_Linear1" x1="0" y1="0" x2="1" y2="0" gradientUnits="userSpaceOnUse" gradientTransform="matrix(52.0727,0,-0,52.0727,38,29.0805)"><stop offset="0%" style="stop-color:rgb(0,99,109);stop-opacity:1"/><stop offset="100%" style="stop-color:rgb(41,52,57);stop-opacity:1"/></linearGradient>
        <linearGradient id="_Linear3" x1="0" y1="0" x2="1" y2="0" gradientUnits="userSpaceOnUse" gradientTransform="matrix(62.0727,0,-0,62.0727,33,29.0805)"><stop offset="0%" style="stop-color:rgb(3,142,145);stop-opacity:1"/><stop offset="50%" style="stop-color:rgb(3,142,145);stop-opacity:1"/><stop offset="100%" style="stop-color:rgb(0,66,98);stop-opacity:1"/></linearGradient>
        <linearGradient id="_Linear4" x1="0" y1="0" x2="1" y2="0" gradientUnits="userSpaceOnUse" gradientTransform="matrix(47.4932,0,-0,47.4932,38,24.1857)"><stop offset="0%" style="stop-color:rgb(0,99,109);stop-opacity:1"/><stop offset="100%" style="stop-color:rgb(41,52,57);stop-opacity:1"/></linearGradient>
        <linearGradient id="_Linear6" x1="0" y1="0" x2="1" y2="0" gradientUnits="userSpaceOnUse" gradientTransform="matrix(48,0,-0,48,38,24.5)"><stop offset="0%" style="stop-color:rgb(0,99,109);stop-opacity:1"/><stop offset="100%" style="stop-color:rgb(41,52,57);stop-opacity:1"/></linearGradient>
    </defs>
</svg>
