<?xml version="1.0" encoding="UTF-8" standalone="no"?>
<!DOCTYPE svg PUBLIC "-//W3C//DTD SVG 1.1//EN" "http://www.w3.org/Graphics/SVG/1.1/DTD/svg11.dtd">
<svg width="100%" height="100%" viewBox="0 0 3988 617" version="1.1" xmlns="http://www.w3.org/2000/svg" xmlns:xlink="http://www.w3.org/1999/xlink" xml:space="preserve" style="fill-rule:evenodd;clip-rule:evenodd;stroke-linejoin:round;stroke-miterlimit:1.41421;">
    <g transform="matrix(4.16667,0,0,4.16667,-0,-0)">
        <g transform="matrix(1,0,0,1,-71.0219,-497.657)">
            <g transform="matrix(0.315975,0,0,0.315975,-40.4081,415.679)">
                <path d="M806.273,614.943C795.821,629.462 869.549,538.365 840.535,420.623C814.567,315.258 763.616,386.901 677.062,437.094L677.063,437.094C689.234,437.686 702.568,438.949 712.73,441.528C737.429,447.818 747.496,459.848 752.535,461.988C757.586,464.14 798.103,469.203 805.52,486.272C805.52,486.272 769.456,477.041 755.66,480.551C741.923,484.072 695.276,500.566 673.873,505.256C671.067,505.871 668.294,506.386 665.519,506.907C745.278,554.497 835.381,574.503 806.273,614.943" style="fill:rgb(1,80,106);fill-rule:nonzero;"/>
            </g>
            <g transform="matrix(0.315975,0,0,0.315975,-40.4081,415.679)">
                <path d="M413.62,465.717C457.028,467.646 546.967,529.165 665.519,506.907C643.842,493.973 622.926,479.008 605.378,461.033C521.967,375.6 561.969,210.794 465.407,273.253C451.831,282.033 438.93,292.284 426.918,304.005C370.24,359.339 345.962,435.376 354.231,508.492C353.128,471.153 376.706,464.073 413.62,465.717" style="fill:rgb(96,142,149);"/>
            </g>
            <g transform="matrix(0.315975,0,0,0.315975,-40.4081,415.679)">
                <path d="M692.196,709.125C694.488,708.195 696.775,707.251 699.044,706.25C699.842,705.902 700.636,705.548 701.43,705.193C726.776,693.681 750.592,677.677 771.649,657.12C784.977,644.106 795.821,629.462 806.273,614.943C835.381,574.503 745.278,554.497 665.519,506.908C546.967,529.166 457.028,467.646 413.62,465.717C376.706,464.073 353.128,471.153 354.231,508.493C360.068,560.107 382.143,610.237 420.584,650.619C421.657,651.735 422.706,652.878 423.799,653.973C424.572,654.755 425.372,655.495 426.153,656.265C485.467,714.106 572.491,741.036 658.903,719.852C666.943,717.881 674.786,715.521 682.435,712.83C683.142,712.578 683.847,712.32 684.552,712.061C687.128,711.128 689.667,710.136 692.196,709.125" style="fill:rgb(43,97,109);"/>
            </g>
        </g>
        <g transform="matrix(1.00598,0,0,1.00598,-21.0715,-816.07)">
            <g>
                <path d="M233.037,873.419L233.037,856.058L244.529,856.058C249.958,856.058 254.485,859.67 254.485,864.599C254.485,869.601 250.797,873.419 245.712,873.419L233.037,873.419ZM233.179,851.263L233.179,834.248L244.529,834.248C249.89,834.248 252.884,837.583 252.884,842.585C252.884,847.445 249.89,851.263 244.529,851.263L233.179,851.263ZM227.956,876.755C227.956,877.448 228.511,878.072 229.277,878.072L245.157,878.072C254.136,878.072 260.336,872.446 260.336,864.668C260.336,858.28 255.668,854.875 251.98,853.347C255.251,851.474 258.804,847.583 258.804,842.236C258.804,834.944 253.022,829.456 244.529,829.456L229.277,829.456C228.511,829.456 227.956,830.081 227.956,830.778L227.956,876.755Z" style="fill:rgb(222,220,220);fill-rule:nonzero;"/>
                <path d="M292.593,861.543L302.76,838.763L303.315,838.763C306.727,846.335 310.07,853.975 313.482,861.543L292.593,861.543ZM281.588,878.073L284.375,878.073C285,878.073 285.421,877.655 285.559,877.31L290.64,865.848L315.362,865.848L320.516,877.31C320.654,877.655 321.071,878.073 321.699,878.073L324.483,878.073C325.529,878.073 326.084,877.169 325.667,876.269L304.64,829.526C304.429,829.108 304.081,828.764 303.453,828.764L302.76,828.764C302.132,828.764 301.783,829.108 301.573,829.526L280.405,876.269C279.987,877.169 280.546,878.073 281.588,878.073Z" style="fill:rgb(222,220,220);fill-rule:nonzero;"/>
                <path d="M348.871,876.755C348.871,877.448 349.426,878.073 350.196,878.073L374.286,878.073C375.052,878.073 375.611,877.448 375.611,876.755L375.611,874.741C375.611,874.044 375.052,873.419 374.286,873.419L354.232,873.419L354.232,830.778C354.232,830.081 353.608,829.457 352.911,829.457L350.196,829.457C349.426,829.457 348.871,830.081 348.871,830.778L348.871,876.755Z" style="fill:rgb(222,220,220);fill-rule:nonzero;"/>
                <path d="M403.759,873.419L403.759,856.058L415.247,856.058C420.681,856.058 425.207,859.67 425.207,864.599C425.207,869.601 421.515,873.419 416.43,873.419L403.759,873.419ZM403.897,851.263L403.897,834.248L415.247,834.248C420.608,834.248 423.602,837.583 423.602,842.585C423.602,847.445 420.608,851.263 415.247,851.263L403.897,851.263ZM398.674,876.755C398.674,877.448 399.233,878.072 399.999,878.072L415.875,878.072C424.858,878.072 431.054,872.446 431.054,864.668C431.054,858.28 426.39,854.875 422.699,853.347C425.973,851.474 429.522,847.583 429.522,842.236C429.522,834.944 423.744,829.456 415.247,829.456L399.999,829.456C399.233,829.456 398.674,830.081 398.674,830.778L398.674,876.755Z" style="fill:rgb(222,220,220);fill-rule:nonzero;"/>
                <path d="M459.133,853.833C459.133,842.792 468.185,833.623 479.256,833.623C490.326,833.623 499.451,842.792 499.451,853.833C499.451,864.878 490.326,873.905 479.256,873.905C468.185,873.905 459.133,864.878 459.133,853.833M454.258,853.833C454.258,867.724 465.329,878.765 479.256,878.765C493.183,878.765 504.326,867.724 504.326,853.833C504.326,839.942 493.183,828.763 479.256,828.763C465.329,828.763 454.258,839.942 454.258,853.833" style="fill:rgb(222,220,220);fill-rule:nonzero;"/>
                <path d="M536.093,861.543L546.26,838.763L546.815,838.763C550.231,846.335 553.57,853.975 556.982,861.543L536.093,861.543ZM525.091,878.073L527.875,878.073C528.503,878.073 528.921,877.655 529.059,877.31L534.144,865.848L558.862,865.848L564.016,877.31C564.154,877.655 564.575,878.073 565.199,878.073L567.987,878.073C569.029,878.073 569.588,877.169 569.17,876.269L548.14,829.526C547.929,829.108 547.585,828.764 546.957,828.764L546.26,828.764C545.632,828.764 545.283,829.108 545.077,829.526L523.908,876.269C523.491,877.169 524.046,878.073 525.092,878.073L525.091,878.073Z" style="fill:rgb(222,220,220);fill-rule:nonzero;"/>
                <path d="M628.922,855.293L628.922,834.734L639.992,834.734C645.706,834.734 650.58,839.043 650.58,844.669C650.58,850.64 645.706,855.293 639.992,855.293L628.922,855.293ZM623.63,876.755C623.63,877.448 624.189,878.073 624.955,878.073L627.601,878.073C628.294,878.073 628.922,877.448 628.922,876.755L628.922,860.432L640.414,860.432C648.907,860.432 655.941,853.416 655.941,844.807C655.941,836.404 648.907,829.457 640.341,829.457L624.955,829.457C624.189,829.457 623.63,830.081 623.63,830.778L623.63,876.755Z" style="fill:rgb(222,220,220);fill-rule:nonzero;"/>
                <path d="M686.245,861.543L696.412,838.763L696.971,838.763C700.383,846.335 703.726,853.975 707.137,861.543L686.245,861.543ZM675.243,878.073L678.031,878.073C678.655,878.073 679.073,877.655 679.214,877.31L684.296,865.848L709.018,865.848L714.168,877.31C714.31,877.655 714.727,878.073 715.355,878.073L718.139,878.073C719.184,878.073 719.74,877.169 719.322,876.269L698.292,829.526C698.085,829.108 697.737,828.764 697.109,828.764L696.412,828.764C695.787,828.764 695.439,829.108 695.228,829.526L674.06,876.269C673.643,877.169 674.198,878.073 675.243,878.073" style="fill:rgb(222,220,220);fill-rule:nonzero;"/>
                <path d="M738.974,853.833C738.974,867.724 750.186,878.765 764.113,878.765C770.309,878.765 776.298,876.613 781.035,872.029C781.521,871.542 781.663,870.573 781.104,870.156L779.017,868.279C778.596,868.003 778.04,867.931 777.343,868.49C773.652,871.266 770.102,873.698 764.044,873.698C753.043,873.698 744.615,864.461 744.615,853.764C744.615,842.999 753.043,833.761 764.044,833.761C768.777,833.761 773.721,835.844 777.343,838.973C778.04,839.666 778.596,839.735 779.154,839.042L781.035,837.166C781.59,836.61 781.521,835.775 780.966,835.22C776.229,831.191 771.147,828.763 764.113,828.763C750.186,828.763 738.974,839.942 738.974,853.833Z" style="fill:rgb(222,220,220);fill-rule:nonzero;"/>
                <path d="M807.371,876.755C807.371,877.448 807.999,878.073 808.692,878.073L811.48,878.073C812.177,878.073 812.801,877.448 812.801,876.755L812.801,830.778C812.801,830.081 812.177,829.457 811.48,829.457L808.692,829.457C807.999,829.457 807.371,830.081 807.371,830.778L807.371,876.755Z" style="fill:rgb(222,220,220);fill-rule:nonzero;"/>
                <path d="M842.623,876.755C842.623,877.448 843.178,878.073 843.944,878.073L846.659,878.073C847.356,878.073 847.984,877.448 847.984,876.755L847.984,857.794L867.969,857.794C868.666,857.794 869.29,857.169 869.29,856.472L869.29,854.458C869.29,853.765 868.666,853.14 867.969,853.14L847.984,853.14L847.984,834.11L871.381,834.11C872.147,834.11 872.702,833.486 872.702,832.792L872.702,830.778C872.702,830.081 872.147,829.457 871.381,829.457L843.944,829.457C843.178,829.457 842.623,830.081 842.623,830.778L842.623,876.755Z" style="fill:rgb(222,220,220);fill-rule:nonzero;"/>
                <path d="M897.855,876.755C897.855,877.448 898.483,878.073 899.18,878.073L901.964,878.073C902.661,878.073 903.289,877.448 903.289,876.755L903.289,830.778C903.289,830.081 902.661,829.457 901.964,829.457L899.18,829.457C898.483,829.457 897.855,830.081 897.855,830.778L897.855,876.755Z" style="fill:rgb(222,220,220);fill-rule:nonzero;"/>
                <path d="M929.554,853.833C929.554,867.724 940.766,878.765 954.693,878.765C960.893,878.765 966.877,876.613 971.615,872.029C972.101,871.542 972.243,870.573 971.684,870.156L969.597,868.279C969.179,868.003 968.62,867.931 967.923,868.49C964.232,871.266 960.682,873.698 954.624,873.698C943.623,873.698 935.195,864.461 935.195,853.764C935.195,842.999 943.623,833.761 954.624,833.761C959.357,833.761 964.304,835.844 967.923,838.973C968.62,839.666 969.179,839.735 969.733,839.042L971.615,837.166C972.17,836.61 972.101,835.775 971.546,835.22C966.809,831.191 961.727,828.763 954.693,828.763C940.766,828.763 929.554,839.942 929.554,853.833Z" style="fill:rgb(222,220,220);fill-rule:nonzero;"/>
            </g>
            <g transform="matrix(1,0,0,1,-113.209,0)">
                <path d="M341.165,939.305C341.165,939.737 341.553,940.125 341.985,940.125L343.713,940.125C344.141,940.125 344.53,939.737 344.53,939.305L344.53,910.819C344.53,910.391 344.141,910.003 343.713,910.003L341.985,910.003C341.553,910.003 341.165,910.391 341.165,910.819L341.165,939.305Z" style="fill:rgb(222,220,220);fill-rule:nonzero;"/>
                <path d="M357.212,939.305C357.212,939.737 357.6,940.125 358.032,940.125L359.542,940.125C360.014,940.125 360.359,939.737 360.359,939.305L360.359,915.897L360.402,915.897L380.206,940.554L380.983,940.554C381.415,940.554 381.803,940.209 381.803,939.781L381.803,910.819C381.803,910.391 381.415,910.003 380.983,910.003L379.473,910.003C378.997,910.003 378.652,910.391 378.652,910.819L378.652,933.755L378.569,933.755L359.11,909.571L358.032,909.571C357.6,909.571 357.212,909.916 357.212,910.348L357.212,939.305Z" style="fill:rgb(222,220,220);fill-rule:nonzero;"/>
                <path d="M392.801,937.069C393.36,937.584 396.812,940.553 401.904,940.553C406.953,940.553 411.222,937.283 411.222,932.808C411.222,927.817 407.469,925.621 401.647,923.254C398.021,921.748 395.821,920.071 395.821,917.189C395.821,915.382 397.2,912.456 401.774,912.456C404.405,912.456 407.124,914.264 407.425,914.434C408.118,914.823 408.547,914.648 408.935,914.046C409.109,913.788 409.28,913.487 409.454,913.229C409.973,912.413 409.454,911.897 409.196,911.766C409.196,911.766 406.046,909.57 401.817,909.57C394.957,909.57 392.627,914.304 392.627,917.233C392.627,922.136 395.476,924.075 400.22,926.14C405.182,928.205 407.77,929.969 407.77,932.938C407.77,935.475 405.483,937.671 401.991,937.671C398.151,937.671 395.001,934.659 394.699,934.401C394.093,933.886 393.621,934.227 393.189,934.789C392.972,935.047 392.757,935.348 392.54,935.606C392.024,936.423 392.456,936.768 392.801,937.069Z" style="fill:rgb(222,220,220);fill-rule:nonzero;"/>
                <path d="M420.967,929.022C420.967,935.563 425.584,940.553 432.357,940.553C439.177,940.553 443.834,935.563 443.834,929.022L443.834,910.819C443.834,910.391 443.446,910.002 443.014,910.002L441.377,910.002C440.901,910.002 440.556,910.391 440.556,910.819L440.556,928.851C440.556,933.755 437.449,937.497 432.357,937.497C427.312,937.497 424.248,933.668 424.248,928.764L424.248,910.819C424.248,910.391 423.903,910.002 423.428,910.002L421.787,910.002C421.355,910.002 420.967,910.391 420.967,910.819L420.967,929.022Z" style="fill:rgb(222,220,220);fill-rule:nonzero;"/>
                <path d="M459.536,925.494L459.536,913.142L467.906,913.142C471.227,913.142 474.116,915.941 474.116,919.211C474.116,922.739 471.227,925.494 467.906,925.494L459.536,925.494ZM456.128,939.305C456.128,939.737 456.472,940.125 456.944,940.125L458.629,940.125C459.06,940.125 459.449,939.737 459.449,939.305L459.449,928.332L467.688,928.332L473.427,939.737C473.514,939.907 473.728,940.125 474.116,940.125L476.32,940.125C477.053,940.125 477.354,939.435 477.053,938.877L471.14,927.948C474.893,926.441 477.525,923.127 477.525,919.167C477.525,914.046 473.296,910.002 468.12,910.002L456.944,910.002C456.473,910.002 456.128,910.391 456.128,910.819L456.128,939.305Z" style="fill:rgb(222,220,220);fill-rule:nonzero;"/>
                <path d="M491.931,929.882L498.232,915.77L498.577,915.77C500.689,920.459 502.762,925.192 504.874,929.882L491.931,929.882ZM485.115,940.125L486.842,940.125C487.227,940.125 487.488,939.864 487.575,939.649L490.722,932.55L506.04,932.55L509.234,939.649C509.317,939.864 509.578,940.125 509.967,940.125L511.691,940.125C512.337,940.125 512.686,939.566 512.424,939.003L499.394,910.046C499.267,909.788 499.049,909.57 498.66,909.57L498.232,909.57C497.844,909.57 497.626,909.788 497.495,910.046L484.381,939.003C484.124,939.566 484.469,940.125 485.115,940.125Z" style="fill:rgb(222,220,220);fill-rule:nonzero;"/>
                <path d="M521.005,939.305C521.005,939.737 521.393,940.125 521.825,940.125L523.335,940.125C523.811,940.125 524.155,939.737 524.155,939.305L524.155,915.897L524.198,915.897L544.003,940.554L544.779,940.554C545.211,940.554 545.6,940.209 545.6,939.781L545.6,910.819C545.6,910.391 545.211,910.003 544.779,910.003L543.269,910.003C542.794,910.003 542.449,910.391 542.449,910.819L542.449,933.755L542.362,933.755L522.903,909.571L521.825,909.571C521.393,909.571 521.005,909.916 521.005,910.348L521.005,939.305Z" style="fill:rgb(222,220,220);fill-rule:nonzero;"/>
                <path d="M556.078,925.106C556.078,933.712 563.022,940.554 571.653,940.554C575.493,940.554 579.203,939.222 582.135,936.38C582.437,936.078 582.524,935.476 582.179,935.218L580.887,934.057C580.626,933.886 580.281,933.842 579.849,934.187C577.562,935.908 575.362,937.414 571.609,937.414C564.793,937.414 559.573,931.69 559.573,925.062C559.573,918.395 564.793,912.671 571.609,912.671C574.542,912.671 577.606,913.963 579.849,915.898C580.281,916.329 580.626,916.369 580.97,915.941L582.135,914.78C582.48,914.435 582.437,913.919 582.092,913.575C579.159,911.077 576.009,909.571 571.653,909.571C563.022,909.571 556.078,916.5 556.078,925.106Z" style="fill:rgb(222,220,220);fill-rule:nonzero;"/>
                <path d="M592.658,939.305C592.658,939.737 593.003,940.125 593.478,940.125L610.476,940.125C610.952,940.125 611.296,939.737 611.296,939.305L611.296,938.06C611.296,937.628 610.952,937.24 610.476,937.24L595.979,937.24L595.979,926.267L608.364,926.267C608.796,926.267 609.184,925.922 609.184,925.45L609.184,924.202C609.184,923.774 608.796,923.385 608.364,923.385L595.979,923.385L595.979,912.884L610.476,912.884C610.952,912.884 611.296,912.5 611.296,912.068L611.296,910.819C611.296,910.391 610.952,910.003 610.476,910.003L593.478,910.003C593.003,910.003 592.658,910.391 592.658,910.819L592.658,939.305Z" style="fill:rgb(222,220,220);fill-rule:nonzero;"/>
                <path d="M633.996,937.069C634.559,937.584 638.01,940.553 643.099,940.553C648.148,940.553 652.42,937.283 652.42,932.808C652.42,927.817 648.667,925.621 642.842,923.254C639.216,921.748 637.016,920.071 637.016,917.189C637.016,915.382 638.395,912.456 642.969,912.456C645.604,912.456 648.319,914.264 648.624,914.434C649.313,914.823 649.745,914.648 650.134,914.046C650.304,913.788 650.478,913.487 650.649,913.229C651.168,912.413 650.649,911.897 650.391,911.766C650.391,911.766 647.241,909.57 643.012,909.57C636.152,909.57 633.825,914.304 633.825,917.233C633.825,922.136 636.671,924.075 641.419,926.14C646.38,928.205 648.968,929.969 648.968,932.938C648.968,935.475 646.682,937.671 643.186,937.671C639.346,937.671 636.196,934.659 635.894,934.401C635.292,933.886 634.816,934.227 634.384,934.789C634.17,935.047 633.952,935.348 633.738,935.606C633.219,936.423 633.651,936.768 633.996,937.069Z" style="fill:rgb(222,220,220);fill-rule:nonzero;"/>
                <path d="M662.555,939.305C662.555,939.737 662.9,940.125 663.372,940.125L680.373,940.125C680.849,940.125 681.193,939.737 681.193,939.305L681.193,938.06C681.193,937.628 680.849,937.24 680.373,937.24L665.876,937.24L665.876,926.267L678.257,926.267C678.689,926.267 679.077,925.922 679.077,925.45L679.077,924.202C679.077,923.774 678.689,923.385 678.257,923.385L665.876,923.385L665.876,912.884L680.373,912.884C680.849,912.884 681.193,912.5 681.193,912.068L681.193,910.819C681.193,910.391 680.849,910.003 680.373,910.003L663.372,910.003C662.9,910.003 662.555,910.391 662.555,910.819L662.555,939.305Z" style="fill:rgb(222,220,220);fill-rule:nonzero;"/>
                <path d="M695.381,925.494L695.381,913.142L703.751,913.142C707.072,913.142 709.965,915.941 709.965,919.211C709.965,922.739 707.072,925.494 703.751,925.494L695.381,925.494ZM691.973,939.305C691.973,939.737 692.318,940.125 692.793,940.125L694.474,940.125C694.906,940.125 695.294,939.737 695.294,939.305L695.294,928.332L703.537,928.332L709.272,939.737C709.359,939.907 709.577,940.125 709.965,940.125L712.165,940.125C712.898,940.125 713.199,939.435 712.898,938.877L706.985,927.948C710.742,926.441 713.373,923.127 713.373,919.167C713.373,914.046 709.145,910.002 703.965,910.002L692.793,910.002C692.318,910.002 691.973,910.391 691.973,910.819L691.973,939.305Z" style="fill:rgb(222,220,220);fill-rule:nonzero;"/>
                <path d="M733.301,940.082C733.432,940.34 733.733,940.554 734.034,940.554L734.466,940.554C734.811,940.554 735.069,940.34 735.199,940.082L748.313,911.121C748.575,910.562 748.23,910.003 747.58,910.003L745.856,910.003C745.511,910.003 745.21,910.261 745.123,910.475L734.379,934.572L734.208,934.572L723.465,910.475C723.377,910.261 723.12,910.003 722.731,910.003L721.004,910.003C720.358,910.003 720.013,910.562 720.27,911.121L733.301,940.082Z" style="fill:rgb(222,220,220);fill-rule:nonzero;"/>
                <path d="M756.897,939.305C756.897,939.737 757.285,940.125 757.714,940.125L759.441,940.125C759.873,940.125 760.262,939.737 760.262,939.305L760.262,910.819C760.262,910.391 759.873,910.003 759.441,910.003L757.714,910.003C757.285,910.003 756.897,910.391 756.897,910.819L756.897,939.305Z" style="fill:rgb(222,220,220);fill-rule:nonzero;"/>
                <path d="M770.741,925.106C770.741,933.712 777.688,940.554 786.316,940.554C790.156,940.554 793.866,939.222 796.798,936.38C797.1,936.078 797.187,935.476 796.842,935.218L795.55,934.057C795.288,933.886 794.944,933.842 794.512,934.187C792.225,935.908 790.025,937.414 786.272,937.414C779.456,937.414 774.236,931.69 774.236,925.062C774.236,918.395 779.456,912.671 786.272,912.671C789.205,912.671 792.269,913.963 794.512,915.898C794.944,916.329 795.288,916.369 795.633,915.941L796.798,914.78C797.143,914.435 797.1,913.919 796.755,913.575C793.822,911.077 790.671,909.571 786.316,909.571C777.688,909.571 770.741,916.5 770.741,925.106Z" style="fill:rgb(222,220,220);fill-rule:nonzero;"/>
                <path d="M807.321,939.305C807.321,939.737 807.666,940.125 808.141,940.125L825.139,940.125C825.615,940.125 825.959,939.737 825.959,939.305L825.959,938.06C825.959,937.628 825.615,937.24 825.139,937.24L810.646,937.24L810.646,926.267L823.027,926.267C823.458,926.267 823.847,925.922 823.847,925.45L823.847,924.202C823.847,923.774 823.459,923.385 823.027,923.385L810.646,923.385L810.646,912.884L825.139,912.884C825.615,912.884 825.959,912.5 825.959,912.068L825.959,910.819C825.959,910.391 825.615,910.003 825.139,910.003L808.141,910.003C807.666,910.003 807.321,910.391 807.321,910.819L807.321,939.305Z" style="fill:rgb(222,220,220);fill-rule:nonzero;"/>
                <path d="M835.059,937.069C835.618,937.584 839.07,940.553 844.161,940.553C849.211,940.553 853.483,937.283 853.483,932.808C853.483,927.817 849.727,925.621 843.905,923.254C840.278,921.748 838.079,920.071 838.079,917.189C838.079,915.382 839.458,912.456 844.031,912.456C846.663,912.456 849.382,914.264 849.687,914.434C850.376,914.823 850.808,914.648 851.197,914.046C851.367,913.788 851.541,913.487 851.712,913.229C852.231,912.413 851.712,911.897 851.454,911.766C851.454,911.766 848.304,909.57 844.075,909.57C837.214,909.57 834.885,914.304 834.885,917.233C834.885,922.136 837.733,924.075 842.478,926.14C847.44,928.205 850.031,929.969 850.031,932.938C850.031,935.475 847.745,937.671 844.249,937.671C840.409,937.671 837.259,934.659 836.957,934.401C836.355,933.886 835.879,934.227 835.447,934.789C835.233,935.047 835.016,935.348 834.801,935.606C834.281,936.423 834.714,936.768 835.059,937.069Z" style="fill:rgb(222,220,220);fill-rule:nonzero;"/>
            </g>
        </g>
    </g>
</svg>
