<?xml version="1.0" standalone="no"?>
<!DOCTYPE svg PUBLIC "-//W3C//DTD SVG 1.1//EN" "http://www.w3.org/Graphics/SVG/1.1/DTD/svg11.dtd">
<svg width="100%" height="100%" viewBox="0 0 87 44" version="1.1" xmlns="http://www.w3.org/2000/svg" xmlns:xlink="http://www.w3.org/1999/xlink" xml:space="preserve" style="fill-rule:evenodd;clip-rule:evenodd;stroke-linecap:round;stroke-linejoin:round;stroke-miterlimit:1.41421;">
    <g transform="matrix(0.75,0,0,0.75,-0,-0)">
        <g transform="matrix(1,0,0,1,-2.56117,2.85109)">
            <g transform="matrix(1,0,0,1,0.0450641,3.01366)">
                <g transform="matrix(0.735076,-0.677984,0.677984,0.735076,15.9612,19.277)">
                    <path d="M32.166,9.915C32.166,9.335 31.694,8.864 31.114,8.864L21.874,8.864C21.293,8.864 20.822,9.335 20.822,9.915L20.822,13.069C20.822,13.649 21.293,14.12 21.874,14.12L31.114,14.12C31.694,14.12 32.166,13.649 32.166,13.069L32.166,9.915Z" style="fill:none;stroke-width:4px;stroke:rgb(39,83,92);stroke-opacity:0.541176;"/>
                </g>
                <g transform="matrix(-0.735076,-0.677984,-0.677984,0.735076,104.263,19.277)">
                    <path d="M32.166,9.915C32.166,9.335 31.694,8.864 31.114,8.864L21.874,8.864C21.293,8.864 20.822,9.335 20.822,9.915L20.822,13.069C20.822,13.649 21.293,14.12 21.874,14.12L31.114,14.12C31.694,14.12 32.166,13.649 32.166,13.069L32.166,9.915Z" style="fill:none;stroke-width:4px;stroke:rgb(39,83,92);stroke-opacity:0.541176;"/>
                </g>
            </g>
            <g transform="matrix(1,0,0,1,-0.660146,0)">
                <g transform="matrix(0.725708,-0.688003,0.688003,0.725708,-11.2904,38.187)">
                    <path d="M46.429,41.577C46.429,41.015 45.973,40.558 45.411,40.558L34.919,40.558C34.357,40.558 33.9,41.015 33.9,41.577L33.9,44.634C33.9,45.196 34.357,45.653 34.919,45.653L45.411,45.653C45.973,45.653 46.429,45.196 46.429,44.634L46.429,41.577Z" style="fill:rgb(39,83,92);fill-opacity:0.541176;"/>
                </g>
                <g transform="matrix(-0.725708,-0.688003,-0.688003,0.725708,132.835,38.187)">
                    <path d="M46.429,41.577C46.429,41.015 45.973,40.558 45.411,40.558L34.919,40.558C34.357,40.558 33.9,41.015 33.9,41.577L33.9,44.634C33.9,45.196 34.357,45.653 34.919,45.653L45.411,45.653C45.973,45.653 46.429,45.196 46.429,44.634L46.429,41.577Z" style="fill:rgb(39,83,92);fill-opacity:0.541176;"/>
                </g>
            </g>
            <g transform="matrix(0.679443,0,0,0.679443,-230.234,-303.406)">
                <circle cx="427.33" cy="486.852" r="25.383" style="fill:rgb(39,83,92);stroke-width:5.89px;stroke:black;"/>
            </g>
        </g>
        <path d="M51.685,20.816L57.991,30.613L67.038,27.127" style="fill:none;stroke-width:4px;stroke:black;"/>
    </g>
</svg>
