<?xml version="1.0" standalone="no"?>
<!DOCTYPE svg PUBLIC "-//W3C//DTD SVG 1.1//EN" "http://www.w3.org/Graphics/SVG/1.1/DTD/svg11.dtd">
<svg width="100%" height="100%" viewBox="0 0 600 600" version="1.1" xmlns="http://www.w3.org/2000/svg" xmlns:xlink="http://www.w3.org/1999/xlink" xml:space="preserve" style="fill-rule:evenodd;clip-rule:evenodd;stroke-linecap:round;stroke-linejoin:round;stroke-miterlimit:1.41421;">
    <g transform="matrix(2.61148,0,0,2.65102,-466.075,-517.598)">
        <path d="M279.911,302.524C265.715,290.698 251.47,269.809 251.47,252.073C251.47,225.641 272.929,204.182 299.361,204.182C325.793,204.182 347.252,225.641 347.252,252.073C347.252,269.135 333.828,289.116 320.017,301.137C334.213,312.963 348.458,333.853 348.458,351.589C348.458,378.021 326.999,399.48 300.567,399.48C274.135,399.48 252.676,378.021 252.676,351.589C252.676,334.527 266.1,314.545 279.911,302.524Z" style="fill:none;stroke-width:10.26px;stroke:white;"/>
    </g>
    <g transform="matrix(2.98403,0,0,2.98403,-559.76,-585.594)">
        <path d="M272.278,269.23C272.278,269.23 277.851,273.557 293.854,270.226C309.857,266.896 314.279,267.024 314.279,267.024C314.279,267.024 307.071,274.837 299.866,284.754C292.692,294.629 294.142,330.603 294.142,330.603C294.142,330.603 298.216,306.449 290.21,287.351C286.966,279.61 279.125,274.182 272.278,269.23Z" style="fill:white;stroke-width:3.18px;stroke:white;"/>
    </g>
    <g transform="matrix(2.98403,0,0,2.98403,-550.868,-594.114)">
        <path d="M285.015,357.633C300.026,357.633 318.94,333.301 318.94,345.523C318.94,357.745 306.753,367.667 291.741,367.667C276.73,367.667 264.542,357.745 264.542,345.523C264.542,333.301 270.003,357.633 285.015,357.633Z" style="fill:white;stroke-width:3.18px;stroke:white;"/>
    </g>
</svg>
