<?xml version="1.0" standalone="no"?>
<!DOCTYPE svg PUBLIC "-//W3C//DTD SVG 1.1//EN" "http://www.w3.org/Graphics/SVG/1.1/DTD/svg11.dtd">
<svg width="100%" height="100%" viewBox="0 0 101 56" version="1.1" xmlns="http://www.w3.org/2000/svg" xmlns:xlink="http://www.w3.org/1999/xlink" xml:space="preserve" style="fill-rule:evenodd;clip-rule:evenodd;stroke-linecap:round;stroke-linejoin:round;stroke-miterlimit:1.41421;">
    <g transform="matrix(0.75,0,0,0.75,0,0)">
        <g id="Layer1" transform="matrix(1,0,0,1,9.93549,-1.87275)">
            <circle cx="58.565" cy="39.251" r="35.511" style="fill:rgb(241,184,65);fill-opacity:0.439216;"/>
        </g>
        <g transform="matrix(0.999154,-0.0411344,0.0411344,0.999154,5.30418,4.87266)">
            <g transform="matrix(0.173851,0.202904,-0.220937,0.189302,157.118,-119.123)">
                <path d="M225.661,402.195L225.661,459.215" style="fill:none;stroke-width:10.74px;stroke:rgb(44,64,68);stroke-opacity:0.529412;"/>
            </g>
            <g transform="matrix(0.0137845,0.26684,-0.201614,0.010415,190.24,-38.8782)">
                <path d="M225.661,402.195L225.661,459.215" style="fill:none;stroke-width:12.67px;stroke:rgb(44,64,68);stroke-opacity:0.529412;"/>
            </g>
        </g>
        <g transform="matrix(0.777541,-0.208342,0.208342,0.777541,4.67741,26.856)">
            <g transform="matrix(1.59994,0.428703,-0.428703,1.59994,3.02226,-33.7298)">
                <path d="M28.497,47.019C28.498,47.044 28.498,47.069 28.499,47.094C28.549,49.833 26.366,52.097 23.627,52.147C20.888,52.197 18.624,50.014 18.574,47.276C18.572,47.197 18.573,47.119 18.575,47.041L28.497,47.019Z" style="fill:rgb(241,184,65);"/>
            </g>
            <g transform="matrix(-0.177543,0.280461,-0.211905,-0.134144,257.276,49.1971)">
                <path d="M225.661,402.195L225.661,459.215" style="fill:none;stroke-width:12.67px;stroke:rgb(44,64,68);stroke-opacity:0.529412;"/>
            </g>
            <g transform="matrix(1,0,0,1,3.75255,1.08717)">
                <path d="M83.004,5.007L95.138,3.091C95.918,2.968 96.713,3.192 97.314,3.705C97.914,4.218 98.26,4.968 98.26,5.758C98.26,17.163 98.26,56.163 98.26,68.115C98.26,68.953 97.87,69.744 97.206,70.255C96.541,70.766 95.677,70.94 94.867,70.725L83.111,67.603L83.111,5.565C83.107,5.503 83.107,5.44 83.1,5.377C83.084,5.252 83.052,5.13 83.006,5.013L83.004,5.007ZM78.116,5.463C78.114,5.497 78.114,5.531 78.111,5.565L78.111,66.807L4.605,47.289C3.422,46.974 2.598,45.903 2.598,44.679C2.598,39.405 2.598,25.509 2.598,19.845C2.598,18.43 3.627,17.226 5.025,17.005L78.116,5.463Z" style="fill:rgb(45,83,91);fill-opacity:0.898039;"/>
            </g>
        </g>
    </g>
</svg>
