<?xml version="1.0" standalone="no"?>
<!DOCTYPE svg PUBLIC "-//W3C//DTD SVG 1.1//EN" "http://www.w3.org/Graphics/SVG/1.1/DTD/svg11.dtd">
<svg width="100%" height="100%" viewBox="0 0 120 75" version="1.1" xmlns="http://www.w3.org/2000/svg" xmlns:xlink="http://www.w3.org/1999/xlink" xml:space="preserve" style="fill-rule:evenodd;clip-rule:evenodd;stroke-linejoin:round;stroke-miterlimit:1.41421;">
    <g transform="matrix(0.75,0,0,0.75,0,0)">
        <path d="M51.055,11.323C59.151,4.904 69.387,1.069 80.511,1.069C106.71,1.069 127.981,22.339 127.981,48.539C127.981,74.738 106.71,96.009 80.511,96.009C56.474,96.009 36.586,78.104 33.467,54.916C34.487,55.241 35.53,55.488 36.586,55.666C36.768,55.695 36.95,55.723 37.133,55.749C37.325,55.775 37.516,55.8 37.709,55.822L37.364,61.573C37.364,61.659 37.359,61.746 37.365,61.833C37.383,62.093 37.453,62.349 37.569,62.582C37.646,62.738 37.744,62.883 37.859,63.013C38.205,63.407 38.702,63.652 39.225,63.688C39.398,63.7 39.573,63.689 39.743,63.655C39.914,63.622 40.08,63.567 40.236,63.49C40.314,63.452 40.387,63.404 40.462,63.361L51.666,55.964L91.842,55.964L91.983,55.963C93.071,55.953 94.156,55.871 95.232,55.707C97.316,55.388 99.353,54.77 101.263,53.878C104.022,52.589 106.506,50.731 108.527,48.454C110.014,46.777 111.249,44.877 112.173,42.835C112.909,41.209 113.447,39.494 113.772,37.739C114.288,34.957 114.27,32.076 113.72,29.301C113.285,27.11 112.517,24.988 111.451,23.025C110.34,20.982 108.909,19.116 107.227,17.512C105.279,15.655 102.998,14.153 100.52,13.104C98.742,12.352 96.866,11.834 94.955,11.566C93.97,11.428 92.977,11.359 91.983,11.35C78.34,11.307 64.698,11.297 51.055,11.323Z" style="fill:rgb(45,83,91);fill-opacity:0.439216;"/>
        <g transform="matrix(1,0,0,1,1.36934,-0.0738817)">
            <g transform="matrix(-0.784801,0,0,0.784801,379.951,-350.4)">
                <g>
                    <g>
                        <clipPath id="_clip1">
                            <path d="M434.614,463.587C448.895,463.587 460.49,475.181 460.49,489.462C460.49,503.568 449.178,515.053 435.138,515.333L435.73,525.186L420.814,515.338L368.861,515.338C354.58,515.338 342.985,503.744 342.985,489.462C342.985,475.181 354.58,463.587 368.861,463.587L434.614,463.587Z"/>
                        </clipPath>
                        <g clip-path="url(#_clip1)">
                            <g transform="matrix(0.639517,0,0,0.639517,135.947,175.994)">
                                <circle cx="384.338" cy="489.324" r="7.215" style="fill:rgb(44,64,68);fill-opacity:0.529412;"/>
                            </g>
                            <g transform="matrix(0.639517,0,0,0.639517,155.947,175.994)">
                                <circle cx="384.338" cy="489.324" r="7.215" style="fill:rgb(44,64,68);fill-opacity:0.529412;"/>
                            </g>
                            <g transform="matrix(0.639517,0,0,0.639517,175.947,175.994)">
                                <circle cx="384.338" cy="489.324" r="7.215" style="fill:rgb(44,64,68);fill-opacity:0.529412;"/>
                            </g>
                        </g>
                    </g>
                </g>
            </g>
            <g transform="matrix(0.784801,0,0,0.784801,-232.3,-324.58)">
                <path d="M446.786,460.959C461.067,460.959 472.662,472.553 472.662,486.834C472.662,500.94 461.35,512.425 447.31,512.705L447.902,522.558L432.986,512.71L381.033,512.71C366.752,512.71 355.157,501.116 355.157,486.834C355.157,472.553 366.752,460.959 381.033,460.959L446.786,460.959Z" style="fill:rgb(45,83,91);fill-opacity:0.901961;"/>
                <g transform="matrix(1,0,0,1,12.1724,-2.6276)">
                    <clipPath id="_clip2">
                        <path d="M434.614,463.587C448.895,463.587 460.49,475.181 460.49,489.462C460.49,503.568 449.178,515.053 435.138,515.333L435.73,525.186L420.814,515.338L368.861,515.338C354.58,515.338 342.985,503.744 342.985,489.462C342.985,475.181 354.58,463.587 368.861,463.587L434.614,463.587Z"/>
                    </clipPath>
                    <g clip-path="url(#_clip2)">
                        <g transform="matrix(0.639517,0,0,0.639517,135.947,175.994)">
                            <circle cx="384.338" cy="489.324" r="7.215" style="fill:white;"/>
                        </g>
                        <g transform="matrix(0.639517,0,0,0.639517,155.947,175.994)">
                            <circle cx="384.338" cy="489.324" r="7.215" style="fill:white;"/>
                        </g>
                        <g transform="matrix(0.639517,0,0,0.639517,175.947,175.994)">
                            <circle cx="384.338" cy="489.324" r="7.215" style="fill:white;"/>
                        </g>
                    </g>
                </g>
            </g>
        </g>
    </g>
</svg>
