<?xml version="1.0" standalone="no"?>
<!DOCTYPE svg PUBLIC "-//W3C//DTD SVG 1.1//EN" "http://www.w3.org/Graphics/SVG/1.1/DTD/svg11.dtd">
<svg width="100%" height="100%" viewBox="0 0 52 33" version="1.1" xmlns="http://www.w3.org/2000/svg" xmlns:xlink="http://www.w3.org/1999/xlink" xml:space="preserve" style="fill-rule:evenodd;clip-rule:evenodd;stroke-linecap:round;stroke-linejoin:round;stroke-miterlimit:1.41421;">
    <g transform="matrix(0.805743,0,0,0.805743,-7.47922,1.85513)">
        <g transform="matrix(1.24109,0,0,1.24109,9.28239,-2.30238)">
            <path d="M40.036,24.103C37.332,29.08 32.058,32.462 26,32.462C19.943,32.462 14.668,29.08 11.964,24.103L40.036,24.103ZM11.51,9.801C14.044,4.334 19.582,0.538 26,0.538C32.419,0.538 37.957,4.334 40.491,9.801L11.51,9.801Z" style="fill:rgb(241,184,65);fill-opacity:0.439216;"/>
        </g>
        <g transform="matrix(0.560935,0,0,0.560935,-198.154,-254.917)">
            <circle cx="427.33" cy="486.852" r="25.383" style="fill:rgb(46,84,93);fill-opacity:0.8;"/>
        </g>
        <g transform="matrix(0.477341,-0.294608,0.294608,0.477341,-229.532,-140.741)">
            <path d="M262.246,478.248L262.246,494.208" style="fill:none;stroke-width:2.21px;stroke:white;"/>
        </g>
        <g transform="matrix(1.589e-16,0.560935,-0.560935,1.589e-16,318.781,-129.427)">
            <path d="M262.246,478.248L262.246,494.208" style="fill:none;stroke-width:2.21px;stroke:white;"/>
        </g>
        <g transform="matrix(0.358728,0,0,0.358728,-96.3219,-157.669)">
            <circle cx="384.338" cy="489.324" r="7.215" style="fill:rgb(241,184,65);stroke-width:3.46px;stroke:rgb(46,84,93);"/>
        </g>
    </g>
</svg>
