<?xml version="1.0" standalone="no"?>
<!DOCTYPE svg PUBLIC "-//W3C//DTD SVG 1.1//EN" "http://www.w3.org/Graphics/SVG/1.1/DTD/svg11.dtd">
<svg width="100%" height="100%" viewBox="0 0 52 33" version="1.1" xmlns="http://www.w3.org/2000/svg" xmlns:xlink="http://www.w3.org/1999/xlink" xml:space="preserve" style="fill-rule:evenodd;clip-rule:evenodd;stroke-linecap:round;stroke-linejoin:round;stroke-miterlimit:1.41421;">
    <g transform="matrix(0.805743,0,0,0.805743,-7.47922,1.85513)">
        <g>
            <g>
                <g transform="matrix(1.33333,0,0,1.33333,4.99006,-4.55643)">
                    <circle cx="27.421" cy="17.049" r="14.858" style="fill:rgb(46,84,93);fill-opacity:0.588235;"/>
                </g>
                <g transform="matrix(1.35821,0,0,1.33333,4.35025,-4.55643)">
                    <clipPath id="_clip1">
                        <circle cx="27.421" cy="17.049" r="14.858"/>
                    </clipPath>
                    <g clip-path="url(#_clip1)">
                        <g transform="matrix(0.420702,0,0,0.420702,-212.545,-188.531)">
                            <path d="M624.48,489.66C624.48,480.928 617.521,473.838 608.948,473.838L531.839,473.838C523.266,473.838 516.307,480.928 516.307,489.66C516.307,498.393 523.266,505.482 531.839,505.482L608.948,505.482C617.521,505.482 624.48,498.393 624.48,489.66Z" style="fill:white;"/>
                        </g>
                    </g>
                </g>
                <g transform="matrix(0.560935,0,0,0.560935,-198.154,-254.917)">
                    <circle cx="427.33" cy="486.852" r="25.383" style="fill:rgb(46,84,93);fill-opacity:0.8;"/>
                </g>
                <g transform="matrix(0.477341,-0.294608,0.294608,0.477341,-229.532,-140.741)">
                    <path d="M262.246,478.248L262.246,494.208" style="fill:none;stroke-width:2.21px;stroke:white;"/>
                </g>
                <g transform="matrix(1.589e-16,0.560935,-0.560935,1.589e-16,318.781,-129.427)">
                    <path d="M262.246,478.248L262.246,494.208" style="fill:none;stroke-width:2.21px;stroke:white;"/>
                </g>
                <g transform="matrix(0.358728,0,0,0.358728,-96.3219,-157.669)">
                    <circle cx="384.338" cy="489.324" r="7.215" style="fill:white;stroke-width:3.46px;stroke:rgb(46,84,93);"/>
                </g>
            </g>
        </g>
    </g>
</svg>
